<mxfile host="app.diagrams.net" modified="2020-08-21T12:51:21.864Z" agent="5.0 (Windows NT 10.0; Win64; x64) AppleWebKit/537.36 (KHTML, like Gecko) Chrome/84.0.4147.135 Safari/537.36" etag="v5LEh9au0g28x_OSpe5n" version="13.6.2" type="github">
  <diagram id="kgpKYQtTHZ0yAKxKKP6v" name="Page-1">
    <mxGraphModel dx="1422" dy="914" grid="1" gridSize="10" guides="1" tooltips="1" connect="1" arrows="1" fold="1" page="1" pageScale="1" pageWidth="850" pageHeight="1100" math="0" shadow="0">
      <root>
        <mxCell id="0" />
        <mxCell id="1" parent="0" />
        <mxCell id="upIJG79H62ulOGl8ITZA-2" value="" style="group" vertex="1" connectable="0" parent="1">
          <mxGeometry x="60" y="200" width="1200" height="900" as="geometry" />
        </mxCell>
        <mxCell id="3nuBFxr9cyL0pnOWT2aG-1" value="找工作流程" style="shape=table;childLayout=tableLayout;rowLines=0;columnLines=0;startSize=40;html=1;whiteSpace=wrap;collapsible=0;recursiveResize=0;expand=0;fontStyle=1" parent="upIJG79H62ulOGl8ITZA-2" vertex="1">
          <mxGeometry x="50" y="170" width="1370" height="1028" as="geometry" />
        </mxCell>
        <mxCell id="3nuBFxr9cyL0pnOWT2aG-3" value="准备投递" style="swimlane;horizontal=0;points=[[0,0.5],[1,0.5]];portConstraint=eastwest;startSize=40;html=1;whiteSpace=wrap;collapsible=0;recursiveResize=0;expand=0;" parent="3nuBFxr9cyL0pnOWT2aG-1" vertex="1">
          <mxGeometry y="40" width="1370" height="430" as="geometry" />
        </mxCell>
        <mxCell id="3nuBFxr9cyL0pnOWT2aG-4" value="朋友" style="swimlane;connectable=0;startSize=40;html=1;whiteSpace=wrap;collapsible=0;recursiveResize=0;expand=0;" parent="3nuBFxr9cyL0pnOWT2aG-3" vertex="1">
          <mxGeometry x="40" width="251" height="430" as="geometry" />
        </mxCell>
        <mxCell id="upIJG79H62ulOGl8ITZA-23" value="给朋友审核一下" style="rounded=1;whiteSpace=wrap;html=1;absoluteArcSize=1;arcSize=14;strokeWidth=2;fontSize=10;fontFamily=Georgia;" vertex="1" parent="3nuBFxr9cyL0pnOWT2aG-4">
          <mxGeometry x="43.14638046523521" y="125.21649290739242" width="76.37937491407793" height="43.654134471225916" as="geometry" />
        </mxCell>
        <mxCell id="upIJG79H62ulOGl8ITZA-24" style="edgeStyle=orthogonalEdgeStyle;rounded=0;orthogonalLoop=1;jettySize=auto;html=1;entryX=0.5;entryY=0;entryDx=0;entryDy=0;entryPerimeter=0;fontSize=10;fontFamily=Georgia;" edge="1" parent="3nuBFxr9cyL0pnOWT2aG-4" source="upIJG79H62ulOGl8ITZA-23" target="upIJG79H62ulOGl8ITZA-22">
          <mxGeometry relative="1" as="geometry" />
        </mxCell>
        <mxCell id="upIJG79H62ulOGl8ITZA-22" value="朋友觉得&lt;br style=&quot;font-size: 10px;&quot;&gt;简历行不行？" style="strokeWidth=2;html=1;shape=mxgraph.flowchart.decision;whiteSpace=wrap;fontSize=10;fontFamily=Georgia;" vertex="1" parent="3nuBFxr9cyL0pnOWT2aG-4">
          <mxGeometry x="26.937380100214682" y="288.1682608695653" width="108.79587687902647" height="60.65217391304347" as="geometry" />
        </mxCell>
        <mxCell id="3nuBFxr9cyL0pnOWT2aG-8" value="我" style="swimlane;connectable=0;startSize=40;html=1;whiteSpace=wrap;collapsible=0;recursiveResize=0;expand=0;" parent="3nuBFxr9cyL0pnOWT2aG-3" vertex="1">
          <mxGeometry x="291" width="719" height="430" as="geometry" />
        </mxCell>
        <mxCell id="upIJG79H62ulOGl8ITZA-32" value="开始找工作" style="strokeWidth=2;html=1;shape=mxgraph.flowchart.start_1;whiteSpace=wrap;fontSize=10;fontFamily=Georgia;" vertex="1" parent="3nuBFxr9cyL0pnOWT2aG-8">
          <mxGeometry x="144.69962061560494" y="69.99782608695648" width="66.97139584824625" height="35.21739130434782" as="geometry" />
        </mxCell>
        <mxCell id="upIJG79H62ulOGl8ITZA-33" value="准备简历" style="rounded=1;whiteSpace=wrap;html=1;absoluteArcSize=1;arcSize=14;strokeWidth=2;fontSize=10;fontFamily=Georgia;" vertex="1" parent="3nuBFxr9cyL0pnOWT2aG-8">
          <mxGeometry x="139.9963804652354" y="188.82170568561867" width="76.37937491407793" height="31.18152462230423" as="geometry" />
        </mxCell>
        <mxCell id="upIJG79H62ulOGl8ITZA-30" style="edgeStyle=orthogonalEdgeStyle;rounded=0;orthogonalLoop=1;jettySize=auto;html=1;entryX=0.5;entryY=0;entryDx=0;entryDy=0;fontSize=10;fontFamily=Georgia;" edge="1" parent="3nuBFxr9cyL0pnOWT2aG-8" source="upIJG79H62ulOGl8ITZA-32" target="upIJG79H62ulOGl8ITZA-33">
          <mxGeometry relative="1" as="geometry" />
        </mxCell>
        <mxCell id="upIJG79H62ulOGl8ITZA-40" value="失败备忘" style="strokeWidth=2;html=1;shape=mxgraph.flowchart.multi-document;whiteSpace=wrap;fontSize=10;" vertex="1" parent="3nuBFxr9cyL0pnOWT2aG-8">
          <mxGeometry x="278.99999999999994" y="230" width="65.58" height="36" as="geometry" />
        </mxCell>
        <mxCell id="upIJG79H62ulOGl8ITZA-67" value="撰写" style="edgeStyle=none;rounded=0;orthogonalLoop=1;jettySize=auto;html=1;" edge="1" parent="3nuBFxr9cyL0pnOWT2aG-8" source="upIJG79H62ulOGl8ITZA-34" target="upIJG79H62ulOGl8ITZA-40">
          <mxGeometry relative="1" as="geometry" />
        </mxCell>
        <mxCell id="upIJG79H62ulOGl8ITZA-34" value="&lt;font style=&quot;font-size: 10px&quot;&gt;选择职位&lt;/font&gt;" style="rounded=1;whiteSpace=wrap;html=1;absoluteArcSize=1;arcSize=14;strokeWidth=2;fontSize=10;fontFamily=Georgia;" vertex="1" parent="3nuBFxr9cyL0pnOWT2aG-8">
          <mxGeometry x="98.99684536874165" y="339.9973774651136" width="73.32419991751482" height="43.654134471225916" as="geometry" />
        </mxCell>
        <mxCell id="3nuBFxr9cyL0pnOWT2aG-11" value="挑剔的公司" style="swimlane;connectable=0;startSize=40;html=1;whiteSpace=wrap;collapsible=0;recursiveResize=0;expand=0;" parent="3nuBFxr9cyL0pnOWT2aG-3" vertex="1">
          <mxGeometry x="1010" width="360" height="430" as="geometry" />
        </mxCell>
        <mxCell id="upIJG79H62ulOGl8ITZA-52" value="行" style="edgeStyle=orthogonalEdgeStyle;rounded=0;orthogonalLoop=1;jettySize=auto;html=1;exitX=0.5;exitY=1;exitDx=0;exitDy=0;exitPerimeter=0;fontSize=10;labelBackgroundColor=none;entryX=0;entryY=0.5;entryDx=0;entryDy=0;fontFamily=Georgia;" edge="1" parent="3nuBFxr9cyL0pnOWT2aG-3" source="upIJG79H62ulOGl8ITZA-22" target="upIJG79H62ulOGl8ITZA-34">
          <mxGeometry x="0.1811" y="12" relative="1" as="geometry">
            <mxPoint x="2294.316583312396" y="174.20868181293963" as="targetPoint" />
            <mxPoint as="offset" />
          </mxGeometry>
        </mxCell>
        <mxCell id="upIJG79H62ulOGl8ITZA-53" style="edgeStyle=orthogonalEdgeStyle;rounded=0;orthogonalLoop=1;jettySize=auto;html=1;entryX=0.5;entryY=0;entryDx=0;entryDy=0;fontSize=10;fontFamily=Georgia;" edge="1" parent="3nuBFxr9cyL0pnOWT2aG-3" source="upIJG79H62ulOGl8ITZA-33" target="upIJG79H62ulOGl8ITZA-23">
          <mxGeometry relative="1" as="geometry">
            <mxPoint x="2294.316583312396" y="43.24627839926188" as="targetPoint" />
          </mxGeometry>
        </mxCell>
        <mxCell id="upIJG79H62ulOGl8ITZA-54" style="edgeStyle=elbowEdgeStyle;rounded=0;orthogonalLoop=1;jettySize=auto;html=1;fontSize=10;fontFamily=Georgia;entryX=0;entryY=0.25;entryDx=0;entryDy=0;exitX=0;exitY=0.5;exitDx=0;exitDy=0;exitPerimeter=0;" edge="1" parent="3nuBFxr9cyL0pnOWT2aG-3" source="upIJG79H62ulOGl8ITZA-22" target="upIJG79H62ulOGl8ITZA-33">
          <mxGeometry relative="1" as="geometry">
            <Array as="points">
              <mxPoint x="63.14999999999998" y="300" />
            </Array>
            <mxPoint x="2127.15" y="199" as="sourcePoint" />
            <mxPoint x="2393.15" y="-10" as="targetPoint" />
          </mxGeometry>
        </mxCell>
        <mxCell id="upIJG79H62ulOGl8ITZA-55" value="不行" style="edgeLabel;html=1;align=center;verticalAlign=middle;resizable=0;points=[];fontSize=10;labelBackgroundColor=none;fontFamily=Georgia;" vertex="1" connectable="0" parent="upIJG79H62ulOGl8ITZA-54">
          <mxGeometry x="0.0659" y="-1" relative="1" as="geometry">
            <mxPoint x="-34.75" y="6.55" as="offset" />
          </mxGeometry>
        </mxCell>
        <mxCell id="3nuBFxr9cyL0pnOWT2aG-15" value="接触公司" style="swimlane;horizontal=0;points=[[0,0.5],[1,0.5]];portConstraint=eastwest;startSize=40;html=1;whiteSpace=wrap;collapsible=0;recursiveResize=0;expand=0;" parent="3nuBFxr9cyL0pnOWT2aG-1" vertex="1">
          <mxGeometry y="470" width="1370" height="310" as="geometry" />
        </mxCell>
        <mxCell id="3nuBFxr9cyL0pnOWT2aG-16" value="" style="swimlane;connectable=0;startSize=0;html=1;whiteSpace=wrap;collapsible=0;recursiveResize=0;expand=0;" parent="3nuBFxr9cyL0pnOWT2aG-15" vertex="1">
          <mxGeometry x="40" width="251" height="310" as="geometry" />
        </mxCell>
        <mxCell id="3nuBFxr9cyL0pnOWT2aG-18" value="" style="swimlane;connectable=0;startSize=0;html=1;whiteSpace=wrap;collapsible=0;recursiveResize=0;expand=0;" parent="3nuBFxr9cyL0pnOWT2aG-15" vertex="1">
          <mxGeometry x="291" width="719" height="310" as="geometry" />
        </mxCell>
        <mxCell id="upIJG79H62ulOGl8ITZA-31" style="edgeStyle=none;rounded=0;orthogonalLoop=1;jettySize=auto;html=1;exitX=0.75;exitY=0;exitDx=0;exitDy=0;fontSize=10;" edge="1" parent="3nuBFxr9cyL0pnOWT2aG-18" source="upIJG79H62ulOGl8ITZA-39" target="upIJG79H62ulOGl8ITZA-39">
          <mxGeometry relative="1" as="geometry" />
        </mxCell>
        <mxCell id="upIJG79H62ulOGl8ITZA-39" value="投递" style="rounded=1;whiteSpace=wrap;html=1;absoluteArcSize=1;arcSize=14;strokeWidth=2;fontSize=10;fontFamily=Georgia;" vertex="1" parent="3nuBFxr9cyL0pnOWT2aG-18">
          <mxGeometry x="369.9963922691483" y="13.995652173912958" width="87.0436649964209" height="31.304347826086953" as="geometry" />
        </mxCell>
        <mxCell id="upIJG79H62ulOGl8ITZA-37" value="接受电面、一面、N面..." style="verticalLabelPosition=middle;verticalAlign=middle;html=1;shape=process;whiteSpace=wrap;rounded=1;size=0.14;arcSize=6;labelBackgroundColor=none;sketch=0;fontFamily=Georgia;fontSize=10;labelPosition=center;align=center;labelBorderColor=none;" vertex="1" parent="3nuBFxr9cyL0pnOWT2aG-18">
          <mxGeometry x="319.99544738725854" y="93.99826086956512" width="108.80458124552614" height="35.21739130434782" as="geometry" />
        </mxCell>
        <mxCell id="3nuBFxr9cyL0pnOWT2aG-23" value="" style="swimlane;connectable=0;startSize=0;html=1;whiteSpace=wrap;collapsible=0;recursiveResize=0;expand=0;" parent="3nuBFxr9cyL0pnOWT2aG-15" vertex="1">
          <mxGeometry x="1010" width="360" height="310" as="geometry" />
        </mxCell>
        <mxCell id="upIJG79H62ulOGl8ITZA-71" style="edgeStyle=none;rounded=0;orthogonalLoop=1;jettySize=auto;html=1;" edge="1" parent="3nuBFxr9cyL0pnOWT2aG-23" source="upIJG79H62ulOGl8ITZA-50" target="upIJG79H62ulOGl8ITZA-49">
          <mxGeometry relative="1" as="geometry" />
        </mxCell>
        <mxCell id="upIJG79H62ulOGl8ITZA-46" value="通过目前阶段？" style="rhombus;whiteSpace=wrap;html=1;fontSize=10;" vertex="1" parent="3nuBFxr9cyL0pnOWT2aG-23">
          <mxGeometry x="199.99999999999977" y="29.999999999999996" width="85.16" height="77" as="geometry" />
        </mxCell>
        <mxCell id="upIJG79H62ulOGl8ITZA-50" value="目前是否终面" style="strokeWidth=2;html=1;shape=mxgraph.flowchart.decision;whiteSpace=wrap;fontSize=10;" vertex="1" parent="3nuBFxr9cyL0pnOWT2aG-23">
          <mxGeometry x="70.00000000000001" y="122" width="77.58" height="66" as="geometry" />
        </mxCell>
        <mxCell id="upIJG79H62ulOGl8ITZA-49" value="发出通知：进行下一阶段" style="rounded=1;whiteSpace=wrap;html=1;absoluteArcSize=1;arcSize=14;strokeWidth=2;fontSize=10;" vertex="1" parent="3nuBFxr9cyL0pnOWT2aG-23">
          <mxGeometry x="19.999999999999773" y="200" width="100" height="65" as="geometry" />
        </mxCell>
        <mxCell id="upIJG79H62ulOGl8ITZA-60" style="edgeStyle=none;rounded=0;orthogonalLoop=1;jettySize=auto;html=1;fontSize=10;entryX=0;entryY=0.5;entryDx=0;entryDy=0;" edge="1" parent="3nuBFxr9cyL0pnOWT2aG-15" source="upIJG79H62ulOGl8ITZA-37" target="upIJG79H62ulOGl8ITZA-46">
          <mxGeometry relative="1" as="geometry">
            <mxPoint x="2749.15" y="-248" as="targetPoint" />
          </mxGeometry>
        </mxCell>
        <mxCell id="upIJG79H62ulOGl8ITZA-59" style="edgeStyle=none;rounded=0;orthogonalLoop=1;jettySize=auto;html=1;entryX=0;entryY=0.5;entryDx=0;entryDy=0;fontSize=10;" edge="1" parent="3nuBFxr9cyL0pnOWT2aG-15" source="upIJG79H62ulOGl8ITZA-39" target="upIJG79H62ulOGl8ITZA-46">
          <mxGeometry relative="1" as="geometry" />
        </mxCell>
        <mxCell id="upIJG79H62ulOGl8ITZA-57" style="edgeStyle=none;rounded=0;orthogonalLoop=1;jettySize=auto;html=1;entryX=1;entryY=0.5;entryDx=0;entryDy=0;fontSize=10;" edge="1" parent="3nuBFxr9cyL0pnOWT2aG-15" source="upIJG79H62ulOGl8ITZA-49" target="upIJG79H62ulOGl8ITZA-37">
          <mxGeometry relative="1" as="geometry" />
        </mxCell>
        <mxCell id="upIJG79H62ulOGl8ITZA-12" value="达成最终结果" style="swimlane;horizontal=0;points=[[0,0.5],[1,0.5]];portConstraint=eastwest;startSize=40;html=1;whiteSpace=wrap;collapsible=0;recursiveResize=0;expand=0;" vertex="1" parent="3nuBFxr9cyL0pnOWT2aG-1">
          <mxGeometry y="780" width="1370" height="248" as="geometry" />
        </mxCell>
        <mxCell id="upIJG79H62ulOGl8ITZA-13" value="" style="swimlane;connectable=0;startSize=0;html=1;whiteSpace=wrap;collapsible=0;recursiveResize=0;expand=0;" vertex="1" parent="upIJG79H62ulOGl8ITZA-12">
          <mxGeometry x="40" width="251" height="248" as="geometry" />
        </mxCell>
        <mxCell id="upIJG79H62ulOGl8ITZA-15" value="" style="swimlane;connectable=0;startSize=0;html=1;whiteSpace=wrap;collapsible=0;recursiveResize=0;expand=0;" vertex="1" parent="upIJG79H62ulOGl8ITZA-12">
          <mxGeometry x="291" width="719" height="248" as="geometry" />
        </mxCell>
        <mxCell id="upIJG79H62ulOGl8ITZA-28" value="&lt;span style=&quot;font-family: &amp;#34;georgia&amp;#34;&quot;&gt;检讨失败原因&lt;/span&gt;" style="rounded=1;whiteSpace=wrap;html=1;absoluteArcSize=1;arcSize=14;strokeWidth=2;fontSize=10;" vertex="1" parent="upIJG79H62ulOGl8ITZA-15">
          <mxGeometry x="370" y="104" width="92.58" height="40" as="geometry" />
        </mxCell>
        <mxCell id="upIJG79H62ulOGl8ITZA-35" value="斩获Offer&lt;br style=&quot;font-size: 10px&quot;&gt;&lt;span style=&quot;font-size: 10px&quot;&gt;&lt;strike style=&quot;font-size: 10px&quot;&gt;成为社畜&lt;/strike&gt;&lt;/span&gt;" style="strokeWidth=2;html=1;shape=mxgraph.flowchart.terminator;whiteSpace=wrap;fontSize=10;fontFamily=Georgia;" vertex="1" parent="upIJG79H62ulOGl8ITZA-15">
          <mxGeometry x="261.6130350751608" y="167.9973913043478" width="128.38940586972083" height="39.13043478260869" as="geometry" />
        </mxCell>
        <mxCell id="upIJG79H62ulOGl8ITZA-20" value="" style="swimlane;connectable=0;startSize=0;html=1;whiteSpace=wrap;collapsible=0;recursiveResize=0;expand=0;" vertex="1" parent="upIJG79H62ulOGl8ITZA-12">
          <mxGeometry x="1010" width="360" height="248" as="geometry" />
        </mxCell>
        <mxCell id="upIJG79H62ulOGl8ITZA-45" value="发出通知：不进行下一阶段" style="rounded=1;whiteSpace=wrap;html=1;absoluteArcSize=1;arcSize=14;strokeWidth=2;fontSize=10;" vertex="1" parent="upIJG79H62ulOGl8ITZA-20">
          <mxGeometry x="99.99999999999977" y="60" width="115.16" height="51" as="geometry" />
        </mxCell>
        <mxCell id="upIJG79H62ulOGl8ITZA-51" value="发出通知：录取" style="rounded=1;whiteSpace=wrap;html=1;absoluteArcSize=1;arcSize=14;strokeWidth=2;fontSize=10;" vertex="1" parent="upIJG79H62ulOGl8ITZA-20">
          <mxGeometry x="115.15999999999977" y="180.00000000000006" width="85.16" height="40" as="geometry" />
        </mxCell>
        <mxCell id="upIJG79H62ulOGl8ITZA-68" style="edgeStyle=none;rounded=0;orthogonalLoop=1;jettySize=auto;html=1;exitX=0.5;exitY=1;exitDx=0;exitDy=0;" edge="1" parent="upIJG79H62ulOGl8ITZA-20" source="upIJG79H62ulOGl8ITZA-45" target="upIJG79H62ulOGl8ITZA-45">
          <mxGeometry relative="1" as="geometry" />
        </mxCell>
        <mxCell id="upIJG79H62ulOGl8ITZA-58" style="edgeStyle=none;rounded=0;orthogonalLoop=1;jettySize=auto;html=1;entryX=1;entryY=0.5;entryDx=0;entryDy=0;entryPerimeter=0;fontSize=10;" edge="1" parent="upIJG79H62ulOGl8ITZA-12" source="upIJG79H62ulOGl8ITZA-51" target="upIJG79H62ulOGl8ITZA-35">
          <mxGeometry relative="1" as="geometry" />
        </mxCell>
        <mxCell id="upIJG79H62ulOGl8ITZA-56" style="rounded=0;orthogonalLoop=1;jettySize=auto;html=1;entryX=1;entryY=0.5;entryDx=0;entryDy=0;fontSize=10;elbow=vertical;exitX=0;exitY=0.5;exitDx=0;exitDy=0;" edge="1" parent="upIJG79H62ulOGl8ITZA-12" source="upIJG79H62ulOGl8ITZA-45" target="upIJG79H62ulOGl8ITZA-28">
          <mxGeometry relative="1" as="geometry">
            <mxPoint x="782.6953400143166" y="-546.9991304347827" as="targetPoint" />
          </mxGeometry>
        </mxCell>
        <mxCell id="upIJG79H62ulOGl8ITZA-25" style="edgeStyle=none;rounded=0;orthogonalLoop=1;jettySize=auto;html=1;fontSize=10;entryX=0;entryY=0.75;entryDx=0;entryDy=0;" edge="1" parent="3nuBFxr9cyL0pnOWT2aG-1" source="upIJG79H62ulOGl8ITZA-34" target="upIJG79H62ulOGl8ITZA-39">
          <mxGeometry relative="1" as="geometry" />
        </mxCell>
        <mxCell id="upIJG79H62ulOGl8ITZA-26" style="edgeStyle=orthogonalEdgeStyle;rounded=0;orthogonalLoop=1;jettySize=auto;html=1;fontSize=10;" edge="1" parent="3nuBFxr9cyL0pnOWT2aG-1" source="upIJG79H62ulOGl8ITZA-28" target="upIJG79H62ulOGl8ITZA-34">
          <mxGeometry relative="1" as="geometry" />
        </mxCell>
        <mxCell id="upIJG79H62ulOGl8ITZA-72" style="edgeStyle=none;rounded=0;orthogonalLoop=1;jettySize=auto;html=1;entryX=1;entryY=0.5;entryDx=0;entryDy=0;" edge="1" parent="3nuBFxr9cyL0pnOWT2aG-1" source="upIJG79H62ulOGl8ITZA-46" target="upIJG79H62ulOGl8ITZA-45">
          <mxGeometry relative="1" as="geometry" />
        </mxCell>
        <mxCell id="upIJG79H62ulOGl8ITZA-38" value="没有" style="rounded=0;sketch=0;orthogonalLoop=1;jettySize=auto;html=1;labelBackgroundColor=none;strokeColor=#000000;fillColor=#BC6C25;fontFamily=Georgia;fontSize=10;fontColor=#000000;exitX=0.5;exitY=1;exitDx=0;exitDy=0;exitPerimeter=0;" edge="1" parent="1" source="upIJG79H62ulOGl8ITZA-33">
          <mxGeometry y="-38" relative="1" as="geometry">
            <mxPoint as="offset" />
            <mxPoint x="327.15" y="560" as="targetPoint" />
          </mxGeometry>
        </mxCell>
      </root>
    </mxGraphModel>
  </diagram>
</mxfile>
